# xmcd CD database file
#
# Track frame offsets:
#	150
#	11471
#	24152
#	38774
#	51991
#	67881
#	81784
#	95884
#	109562
#	121780
#	133647
#	148449
#	161576
#	173864
#
# Disc length: 2445 seconds
#
# Revision: 1
# Processed by: cddbd v1.5.1PL0 Copyright (c) Steve Scherf et al.
# Submitted via: CDex 1.51
#
DISCID=b5098b0e
DTITLE=Varoius - Cheek to Cheek [CD1]
DYEAR=2001
DGENRE=Love Songs
TTITLE0=Come Rain or Shine--June Christy
TTITLE1=That's My Deisre--Frankie Laine
TTITLE2=You Do--Vic Damone
TTITLE3=It's Wonderful--Ella Fitzgerald
TTITLE4=How Deep is the Ocean--Patti Paige
TTITLE5=I'm Glad There is You--Mildred Bailey
TTITLE6=My Devotion--Vaughn Monroe
TTITLE7=Anniversary Song--Al Jolson
TTITLE8=It's Too Soon to Know--Dinah Washington
TTITLE9=Tall, Dark and Handsome--Ivie Anderson
TTITLE10=Can't Help Loving Dat Man--Billie Holiday
TTITLE11=I Was Doing All Right--Ella Fitzgerald
TTITLE12=Moanin' Low--Lena Horne
TTITLE13=I Don't Know Why (I Just Do)--Bing Crosy and Lauren Bacall
EXTD=YEAR: 2001
EXTT0=
EXTT1=
EXTT2=
EXTT3=
EXTT4=
EXTT5=
EXTT6=
EXTT7=
EXTT8=
EXTT9=
EXTT10=
EXTT11=
EXTT12=
EXTT13=
PLAYORDER=
